<svg width="14" height="16" viewBox="0 0 14 16" fill="none" xmlns="http://www.w3.org/2000/svg">
<path fill-rule="evenodd" clip-rule="evenodd" d="M10.0724 0C10.2189 0.97183 9.81372 1.9239 9.27918 2.5975C8.70727 3.32003 7.72153 3.87885 6.76645 3.84969C6.5921 2.91925 7.03851 1.96059 7.58167 1.31616C8.17752 0.604924 9.19871 0.0592694 10.0724 0ZM12.9415 13.679C13.4338 12.9423 13.6178 12.5707 14 11.7391C11.22 10.707 10.7746 6.84888 13.5258 5.36809C12.6866 4.34075 11.5074 3.74523 10.3942 3.74523C9.59217 3.74523 9.04262 3.94956 8.54303 4.13531C8.12669 4.29011 7.74505 4.43201 7.28088 4.43201C6.77927 4.43201 6.33507 4.27653 5.86995 4.11373C5.35886 3.93484 4.82251 3.74711 4.15697 3.74711C2.90779 3.74711 1.57815 4.49222 0.735141 5.76604C-0.449854 7.56011 -0.247725 10.9328 1.67394 13.806C2.3608 14.8343 3.27852 15.9895 4.47884 15.9999C4.9769 16.0047 5.30833 15.8596 5.66698 15.7026C6.07749 15.5228 6.52367 15.3275 7.2962 15.3235C8.07329 15.3189 8.51243 15.5166 8.91749 15.699C9.26694 15.8564 9.59101 16.0023 10.0848 15.9971C11.2861 15.9877 12.2546 14.7072 12.9415 13.679Z" fill="#0B0B0A"/>
</svg>
