<svg width="19" height="16" viewBox="0 0 19 16" fill="none" xmlns="http://www.w3.org/2000/svg">
<path d="M6.41285 11.8909L9.50195 15M9.50195 15L12.5911 11.8909M9.50195 15V8.00453M16.3598 12.7381C17.0312 12.2629 17.5347 11.5848 17.7972 10.8021C18.0597 10.0193 18.0676 9.17279 17.8197 8.38526C17.5718 7.59773 17.081 6.9102 16.4185 6.42243C15.756 5.93467 14.9564 5.67206 14.1356 5.6727H13.1625C12.9303 4.76164 12.4957 3.91548 11.8915 3.19792C11.2873 2.48037 10.5292 1.91012 9.67433 1.53011C8.81947 1.15009 7.89009 0.970214 6.95617 1.00402C6.02224 1.03782 5.1081 1.28442 4.28257 1.72526C3.45704 2.16609 2.74163 2.78967 2.19019 3.54906C1.63876 4.30844 1.26568 5.18383 1.09903 6.10934C0.932377 7.03484 0.976505 7.98634 1.22809 8.89219C1.47967 9.79805 1.93216 10.6347 2.55147 11.339" stroke="#2FDBD9" stroke-width="1.5" stroke-linecap="round" stroke-linejoin="round"/>
</svg>
