<svg width="77" height="77" viewBox="0 0 77 77" fill="none" xmlns="http://www.w3.org/2000/svg">
<rect x="0.745758" y="0.754272" width="76" height="76" rx="11.5932" fill="#3273F1"/>
<path d="M27.4124 21.7543C24.2828 21.7543 21.7458 24.2913 21.7458 27.4209V50.0876C21.7458 53.2172 24.2828 55.7543 27.4124 55.7543H38.7019V43.9777H34.4958V39.1063H38.7019V35.3935C38.7019 31.1704 41.1722 28.8376 44.9557 28.8376C46.7677 28.8376 48.6624 29.1665 48.6624 29.1665V33.3115H46.574C44.5177 33.3115 43.8761 34.6107 43.8761 35.9432V39.1063H48.4681L47.7337 43.9777H43.8761V55.7543H50.0791C53.2087 55.7543 55.7458 53.2172 55.7458 50.0876V27.4209C55.7458 24.2913 53.2087 21.7543 50.0791 21.7543H27.4124Z" fill="white"/>
</svg>
