<svg width="220" height="46" viewBox="0 0 220 46" fill="none" xmlns="http://www.w3.org/2000/svg">
<path d="M34.2492 41.2137C33.5656 40.8851 33.5656 40.3246 33.8884 39.7835C34.1923 39.2616 34.591 38.7978 35.0278 38.3725C36.3951 37.0969 37.1167 35.4541 37.0787 33.6566C37.0407 31.1634 36.7369 28.6702 36.49 26.1769C36.4331 25.6551 36.2242 25.0753 35.9203 24.6694C35.6545 24.3022 35.1038 23.8576 34.7809 23.9156C34.3822 23.9929 33.7935 24.5341 33.7365 24.9206C33.5846 26.0223 33.6605 27.1626 33.6416 28.2836C33.5846 30.1004 33.6036 31.9365 33.4137 33.7533C33.2428 35.4154 32.4452 36.7877 31.0589 37.7927C29.9575 38.5852 29.6347 39.8028 29.5777 41.0977C29.5398 42.2187 29.5398 43.359 29.5588 44.48C29.5777 45.3691 29.103 45.7556 28.3244 45.8909C28.2674 45.9103 28.1915 45.8909 28.1345 45.9103C25.7228 46.1035 25.5139 45.9103 25.5139 43.4557C25.5139 42.4893 25.5139 41.5229 25.5329 40.5565C25.5709 39.5322 25.0202 39.0104 24.1277 38.7784C23.7859 38.7011 23.444 38.6431 23.1022 38.6238C20.6336 38.4499 19.836 39.223 19.874 41.6775C19.893 42.6826 19.893 43.6683 19.874 44.6733C19.836 45.485 19.4942 45.9103 18.5827 45.9682C16.0001 46.1035 15.7722 45.9103 15.8292 43.2624C15.8481 42.5473 15.8481 41.8515 15.8292 41.1364C15.7722 39.6675 15.3924 38.3725 14.1201 37.4448C12.0312 35.918 11.8223 33.5407 11.7084 31.2214C11.6324 29.6559 11.7843 28.071 11.8223 26.5055C11.8413 26.003 11.8983 25.4232 11.7084 24.9786C11.5185 24.5341 11.0817 24.0123 10.6829 23.9349C10.3601 23.877 9.71445 24.3408 9.58152 24.708C9.16374 25.8484 8.74597 27.0273 8.63203 28.2256C8.44213 30.2937 8.42314 32.381 8.48011 34.4684C8.51809 35.9759 9.27768 37.1936 10.3031 38.2952C10.7969 38.8171 11.2146 39.4549 11.5375 40.0927C11.7084 40.4406 11.6134 40.9238 11.6324 41.349C11.5375 41.3876 11.4615 41.407 11.3666 41.4456C11.2336 41.2717 11.1007 41.0591 10.9298 40.9238C10.6639 40.7112 10.3221 40.3246 10.0942 40.3826C9.82838 40.4599 9.63849 40.8851 9.46758 41.2137C9.37263 41.407 9.44859 41.7162 9.31566 41.8515C8.91688 42.2574 8.4991 42.8179 8.02436 42.9145C7.66355 42.9918 6.90396 42.5473 6.79002 42.1607C6.31528 40.6725 5.80255 39.165 5.68862 37.6188C5.44175 34.2171 5.5367 30.7962 6.54315 27.4912C7.32174 24.9206 8.36617 22.4854 10.3411 20.572C10.493 20.4174 10.6449 20.0115 10.55 19.8375C9.25869 17.209 9.79041 14.5611 10.3791 11.9133C10.3981 11.7973 10.455 11.662 10.493 11.5461C10.626 10.9856 10.512 10.657 9.86636 10.7343C9.67647 10.7536 9.48657 10.7536 9.29667 10.7343C6.6381 10.657 5.28983 9.01416 5.76457 6.34697C6.01144 5.05203 6.44821 3.77642 6.92295 2.48148C7.9484 4.8201 9.08778 6.86881 12.0692 6.67554C11.9552 7.97047 12.411 8.95617 13.5124 9.61331C13.3415 9.22676 13.1516 8.85954 12.9617 8.49232C12.316 7.25536 12.5439 6.73352 13.7403 6.11504C15.0886 5.41925 16.4368 4.68481 17.6712 3.79575C19.6081 2.40417 21.4121 2.69408 23.1402 4.06633C24.1277 4.83943 24.9822 5.78647 25.8747 6.65621C25.7798 5.45791 24.2606 3.81507 21.8109 2.36551C24.4695 2.13359 26.9382 2.57812 28.9701 4.12431C30.907 5.5932 32.9389 7.13939 33.3567 9.90322C33.4896 9.84524 33.6036 9.80658 33.7365 9.7486C33.5466 8.89819 33.3757 8.06711 33.1858 7.15872C35.4076 7.54527 36.8888 6.54024 37.7054 4.43355C39.3575 7.39065 38.2561 9.99986 35.5975 10.5024C35.0088 10.6183 34.8189 10.8889 35.0088 11.5267C35.8064 14.1939 35.4836 16.8031 34.591 19.3737C34.4771 19.7022 34.5151 20.2821 34.705 20.456C37.5155 22.9879 38.6928 26.3509 39.3955 29.9458C40.0791 33.4634 39.8892 36.981 39.2815 40.4986C39.1866 41.0204 39.0157 41.6196 38.6928 42.0061C38.37 42.3927 37.7623 42.7985 37.3446 42.7599C36.8888 42.7212 36.49 42.1414 36.0912 41.7742C35.9963 41.6775 36.0533 41.4456 35.9773 41.3103C35.7874 40.9431 35.5595 40.5952 35.3506 40.228C35.0658 40.4792 34.7809 40.7305 34.4961 40.9818C34.4391 41.0784 34.3632 41.1364 34.2492 41.2137ZM23.3491 26.3702C25.9697 26.3702 28.0206 24.8047 28.6283 22.4081C28.8182 21.6157 28.6472 21.2484 27.8687 21.1518C26.5014 20.9778 25.0962 20.5913 23.7479 20.6686C22.0388 20.7846 20.3487 21.2484 18.6776 21.6157C17.937 21.7896 17.8041 22.2921 18.1459 23.0072C19.2093 25.2299 20.9564 26.2929 23.3491 26.3702ZM16.095 19.7409C17.6712 19.7602 19.0194 18.8325 19.6651 17.325C19.798 17.0157 19.9499 16.6872 20.1588 16.4166C20.6336 15.8367 20.3487 15.5855 19.817 15.3729C19.4752 15.2376 19.1144 15.1023 18.7916 14.909C17.6142 14.2132 16.4558 13.4981 15.3164 12.7444C14.7657 12.3771 14.348 12.4544 13.8732 12.8217C12.6199 13.8074 12.0692 15.4889 12.5439 17.035C13.0187 18.6199 14.4999 19.7216 16.095 19.7409ZM33.0909 15.6241C32.9199 15.2762 32.6161 14.5418 32.1983 13.904C31.7046 13.1696 31.0779 13.0343 30.2614 13.5948C29.141 14.3679 27.9066 14.967 26.7673 15.7015C26.5963 15.8174 26.4634 16.2426 26.5204 16.4552C26.6723 16.8998 26.9572 17.2863 27.204 17.7115C27.9636 18.9871 29.3689 19.5669 30.7931 19.1611C32.0844 18.7938 33.0909 17.4603 33.0909 15.6241ZM24.7543 18.9291C25.0582 18.1367 24.7354 17.6535 24.1087 17.325C23.3491 16.9384 22.2287 17.093 21.8489 17.6922C21.64 18.0014 21.659 18.4653 21.5831 18.7745C22.0958 18.388 22.4756 17.9434 22.9313 17.8081C23.8049 17.5569 24.4125 18.0207 24.7543 18.9291Z" fill="#FFA500"/>
<path d="M36.2052 11.8554C38.1991 10.889 38.7878 10.2898 39.8133 8.18316C46.2508 15.5083 46.2318 27.6266 40.9716 34.5651C40.8957 33.4635 40.8197 32.4198 40.7628 31.3761C40.5539 27.0661 38.9397 23.3552 36.1672 20.1275C35.9773 19.9149 35.8254 19.4897 35.9014 19.2385C36.7559 16.8225 36.566 14.3679 36.2052 11.8554Z" fill="#2FDBD9"/>
<path d="M4.41632 33.8114C-0.0272847 27.1627 0.200593 16.3587 4.77713 9.99995C5.85954 11.2949 7.32176 11.7974 8.95488 11.8167C8.84094 13.2083 8.68902 14.5419 8.63205 15.8562C8.61306 16.6486 8.65104 17.4797 8.84094 18.2528C9.1068 19.3158 8.99286 20.1082 8.25226 21.0166C5.55571 24.3989 4.62521 28.4383 4.41632 32.7097C4.41632 32.9803 4.41632 33.2509 4.41632 33.8114Z" fill="#2FDBD9"/>
<path d="M36.4141 4.76222C35.4456 6.0185 33.7365 6.28908 32.5402 5.36137C31.8945 4.85885 31.3059 4.2597 30.6792 3.71853C28.0016 1.39924 24.8873 0.761436 21.4692 1.14798C19.5322 1.37991 17.8611 2.23032 16.209 3.19669C14.7468 4.06643 13.3605 5.12944 11.6135 5.38069C10.664 5.51599 10.3032 5.40002 9.6765 4.72356C16.4179 -1.24862 28.5333 -1.90575 36.4141 4.76222Z" fill="#2FDBD9"/>
<path d="M33.1289 41.8902C32.4073 42.2188 31.7426 42.5474 30.983 42.8952C30.983 41.8516 30.9261 40.9239 31.002 40.0155C31.04 39.6096 31.2869 39.0877 31.6097 38.8751C34.1733 37.0584 34.686 34.3718 34.781 31.4921C34.8379 29.8492 34.686 28.2064 34.686 26.5829C34.686 26.293 34.9139 26.0031 35.0278 25.7132C35.1987 25.9837 35.4836 26.235 35.5216 26.5249C35.7684 28.4383 35.9773 30.3517 36.1292 32.2652C36.3002 34.3525 35.8254 36.2466 34.1923 37.6575C32.901 38.8172 32.5022 40.1701 33.1289 41.8902Z" fill="#2FDBD9"/>
<path d="M10.7589 25.3073C10.7589 25.6745 10.7399 26.0417 10.7589 26.4089C10.8349 28.9988 10.8159 31.608 11.0438 34.1979C11.1767 35.6668 11.8224 37.039 13.0377 38.0247C14.4999 39.223 14.9367 40.8079 14.7278 42.7793C14.1391 42.5087 13.5694 42.2961 13.0757 41.9869C12.8858 41.8709 12.8288 41.465 12.8098 41.1751C12.7718 39.9381 12.6009 38.7012 11.5945 37.9474C10.1133 36.8264 9.6955 35.2416 9.5056 33.5794C9.20176 30.9702 9.41065 28.3803 10.2082 25.8678C10.2652 25.6552 10.3981 25.4812 10.4931 25.2879C10.569 25.2879 10.664 25.3073 10.7589 25.3073Z" fill="#2FDBD9"/>
<path d="M24.5075 44.3255C23.2922 44.3255 22.1718 44.3255 20.9185 44.3255C20.9185 43.0499 20.9185 41.8322 20.9185 40.6339C20.9185 40.576 20.9185 40.4986 20.9374 40.4407C21.5641 39.455 22.5326 39.8029 23.4061 39.8029C24.0518 39.8029 24.4885 40.1121 24.4885 40.8465C24.5075 41.9675 24.5075 43.0885 24.5075 44.3255Z" fill="#2FDBD9"/>
<path d="M23.3494 26.3704C20.9567 26.2931 19.2096 25.2301 18.1462 23.0074C17.8044 22.2923 17.9373 21.7898 18.6779 21.6158C20.349 21.2486 22.0391 20.7848 23.7482 20.6688C25.1155 20.5915 26.5017 20.978 27.869 21.152C28.6476 21.2486 28.8375 21.6352 28.6286 22.4083C28.0209 24.8049 25.97 26.3704 23.3494 26.3704ZM21.3365 21.5385C20.7858 21.6545 20.368 21.7318 19.7793 21.8478C20.1591 22.3889 20.444 22.8141 20.8807 23.4326C21.0516 22.6982 21.1656 22.1957 21.3365 21.5385ZM26.8625 21.5772C26.1789 21.4999 25.7801 21.4612 25.2104 21.4032C25.4003 22.041 25.5522 22.5049 25.7421 23.1814C26.1789 22.5822 26.4447 22.1763 26.8625 21.5772Z" fill="black"/>
<path d="M16.0951 19.7411C14.481 19.7217 13.0188 18.6201 12.525 17.0545C12.0503 15.5084 12.601 13.8075 13.8543 12.8412C14.3481 12.4546 14.7658 12.3966 15.2975 12.7639C16.4369 13.5176 17.5953 14.2134 18.7727 14.9285C19.0955 15.1218 19.4563 15.2571 19.7981 15.3924C20.3298 15.605 20.6337 15.8562 20.1399 16.4361C19.9311 16.6873 19.7791 17.0159 19.6462 17.3445C19.0195 18.8327 17.6903 19.7411 16.0951 19.7411ZM14.8418 16.3781C14.8608 17.5184 14.9557 18.5621 15.8103 18.7747C16.4939 18.9293 17.3484 18.5041 18.0701 18.1755C18.3929 18.0403 18.6208 17.5764 18.8296 17.2285C19.2094 16.552 19.2094 15.9722 18.3739 15.605C17.8802 15.3924 17.4624 15.0445 16.9876 14.7739C16.1521 14.2714 15.5824 14.3874 15.1646 15.2764C14.9557 15.6823 14.8798 16.1848 14.8418 16.3781ZM15.7913 14.0781C15.1836 13.3437 14.538 13.537 14.2531 14.2714C13.9113 15.1798 13.7594 16.1655 13.7024 17.1319C13.6644 17.9823 14.0632 18.3108 14.9747 18.5621C14.1392 16.61 14.3481 15.4697 15.7913 14.0781Z" fill="black"/>
<path d="M33.0906 15.6244C33.0906 17.4605 32.1031 18.7748 30.7738 19.142C29.3496 19.5285 27.9443 18.9681 27.1847 17.6924C26.9379 17.2866 26.653 16.8807 26.5011 16.4362C26.4251 16.2236 26.5581 15.7984 26.748 15.6824C27.9063 14.9479 29.1217 14.3488 30.2421 13.5757C31.0587 13.0152 31.6853 13.1505 32.1791 13.8849C32.6158 14.5421 32.9197 15.2765 33.0906 15.6244ZM30.1661 14.6774C29.4065 15.1412 28.6849 15.5858 27.9633 16.0303C27.8114 16.1269 27.6595 16.2815 27.6215 16.4362C27.4886 17.0933 28.4571 18.137 29.3306 18.3689C30.2231 18.6008 30.394 17.905 30.6029 17.3059C30.9637 16.3975 30.7738 15.5084 30.1661 14.6774ZM30.5269 14.4068C31.2865 15.7017 31.1726 16.9967 30.7928 18.3882C31.2486 18.0017 31.7043 17.5571 31.7803 17.0546C31.9132 15.9723 31.7043 14.9673 30.5269 14.4068Z" fill="black"/>
<path d="M24.7543 18.9291C24.4125 18.0207 23.8048 17.5569 22.9313 17.8275C22.4755 17.9628 22.0957 18.4073 21.583 18.7938C21.659 18.4653 21.659 18.0207 21.8489 17.7115C22.2477 17.1123 23.3491 16.9577 24.1087 17.3443C24.7353 17.6342 25.0581 18.1367 24.7543 18.9291Z" fill="black"/>
<path d="M21.336 21.5383C21.184 22.1955 21.0701 22.6787 20.8802 23.4324C20.4434 22.8139 20.1586 22.3887 19.7788 21.8476C20.3675 21.7316 20.7663 21.6543 21.336 21.5383Z" fill="white"/>
<path d="M26.8625 21.577C26.4447 22.1762 26.1789 22.5821 25.7611 23.1812C25.5522 22.5047 25.4193 22.0409 25.2294 21.4031C25.7801 21.4611 26.1789 21.4997 26.8625 21.577Z" fill="white"/>
<path d="M14.8417 16.3779C14.8986 16.1847 14.9556 15.7015 15.1645 15.2763C15.5823 14.3872 16.152 14.2519 16.9875 14.7738C17.4433 15.0637 17.88 15.3922 18.3738 15.6048C19.2093 15.9721 19.2283 16.5519 18.8295 17.2283C18.6206 17.5762 18.4118 18.0401 18.0699 18.1754C17.3483 18.4846 16.4938 18.9292 15.8102 18.7745C14.9556 18.5619 14.8417 17.5183 14.8417 16.3779Z" fill="#2FDBD9"/>
<path d="M15.7911 14.078C14.3479 15.4696 14.139 16.6292 14.9745 18.562C14.082 18.3107 13.6642 17.9822 13.7022 17.1318C13.7592 16.1654 13.9111 15.1604 14.2529 14.2713C14.5378 13.5175 15.1834 13.3436 15.7911 14.078Z" fill="white"/>
<path d="M30.1663 14.6772C30.774 15.5083 30.9639 16.3974 30.6221 17.3251C30.4132 17.9049 30.2423 18.62 29.3498 18.3881C28.4573 18.1562 27.5078 17.1125 27.6407 16.4554C27.6787 16.3008 27.8306 16.1268 27.9825 16.0495C28.6851 15.5856 29.4067 15.1411 30.1663 14.6772Z" fill="#2FDBD9"/>
<path d="M30.527 14.4065C31.6854 14.967 31.9132 15.9913 31.7613 17.0544C31.6854 17.5569 31.2486 18.0014 30.7738 18.3879C31.1916 16.977 31.3056 15.6821 30.527 14.4065Z" fill="white"/>
<path d="M58.8817 27.0634C56.9606 25.9514 56 24.1888 56 21.7757C56 21.1605 56.082 20.5572 56.246 19.9658C56.4569 19.2087 56.8434 18.4161 57.4057 17.5881C58.0617 16.6654 58.4248 16.1213 58.4951 15.9556C58.8465 15.1512 59.4674 14.7491 60.3577 14.7491C61.412 14.7491 62.3257 15.1867 63.0988 16.0621C63.8719 16.9375 64.4576 18.1086 64.8559 19.5754C64.9965 20.1196 65.0668 20.6519 65.0668 21.1724C65.0668 23.0177 64.1882 24.8749 62.4311 26.744C62.0094 27.1935 61.3534 27.4183 60.4631 27.4183C59.8305 27.4183 59.3034 27.3 58.8817 27.0634ZM60.0063 23.5501C60.1937 23.5974 60.3694 23.621 60.5334 23.621C61.5877 23.621 62.1148 22.9704 62.1148 21.6692C62.1148 20.5572 61.7048 19.5399 60.8848 18.6172C60.8145 18.5699 60.7325 18.5463 60.6388 18.5463C60.264 18.5463 59.7954 18.9248 59.2331 19.6819C58.6943 20.4153 58.4248 21.1369 58.4248 21.8466C58.4248 22.7457 58.952 23.3135 60.0063 23.5501Z" fill="#FFA500"/>
<path d="M69.0107 16.0621C69.5964 16.7955 69.8307 17.9903 69.7136 19.6464C69.573 21.7047 69.573 23.0177 69.7136 23.5856C69.8541 24.2953 69.9947 24.9932 70.1353 25.6793C70.3227 26.5074 70.5921 27.158 70.9436 27.6312C71.0841 27.7968 71.2247 27.8796 71.3653 27.8796C71.5996 27.8796 71.8456 27.6785 72.1033 27.2763C72.3844 26.8741 72.7944 26.0579 73.3333 24.8276C73.7784 23.834 74.247 23.0887 74.739 22.5919C75.231 22.0951 75.6761 21.8466 76.0744 21.8466C76.4492 21.8466 76.8592 22.0596 77.3044 22.4854C77.7729 22.9113 78.3469 23.8458 79.0264 25.289C79.6355 26.5665 80.2681 27.4183 80.9241 27.8441C80.9709 27.8678 81.0178 27.8796 81.0646 27.8796C81.2989 27.8796 81.58 27.5957 81.908 27.0279C82.5406 25.9396 82.8569 24.5437 82.8569 22.8403C82.8569 22.5801 82.8569 22.2015 82.8569 21.7047C82.8335 21.1842 82.8218 20.8057 82.8218 20.5691C82.8218 19.6464 82.9155 18.8775 83.1029 18.2624C83.2669 17.7419 83.7003 17.4816 84.4032 17.4816C85.5277 17.4816 86.1603 18.0494 86.3009 19.185C86.418 20.3916 86.4766 21.4563 86.4766 22.379C86.4766 26.0934 85.352 28.7195 83.1029 30.2573C82.2829 30.8014 81.4278 31.0735 80.5375 31.0735C79.9283 31.0735 79.3192 30.9316 78.7101 30.6477C78.1946 30.4111 77.6324 29.8196 77.0232 28.8733C76.4375 27.9269 76.0744 27.4419 75.9338 27.4183C75.7698 27.3946 75.3832 27.8914 74.7741 28.9087C74.0478 30.0444 73.4387 30.7541 72.9467 31.038C72.1736 31.4875 71.3418 31.7123 70.4516 31.7123C69.491 31.7123 68.7881 31.4284 68.343 30.8606C66.5859 28.542 65.7073 25.4309 65.7073 21.5273C65.7073 20.3207 65.7893 18.7947 65.9533 16.9493C66.047 15.9556 66.621 15.4588 67.6753 15.4588C68.2376 15.4588 68.6827 15.6599 69.0107 16.0621Z" fill="#FFA500"/>
<path d="M88.036 24.0114C88.036 23.6329 88.0009 23.0296 87.9306 22.2015C87.8838 21.3735 87.8603 20.7583 87.8603 20.3561C87.8603 19.4571 87.9658 18.7237 88.1766 18.1559C88.3875 17.6591 88.8326 17.4106 89.512 17.4106C90.2852 17.4106 90.7654 17.7182 90.9529 18.3333C90.9997 18.4753 91.0232 18.6409 91.0232 18.8302C91.0232 19.0668 90.9529 19.4335 90.8123 19.9303C90.6952 20.4035 90.6366 20.7702 90.6366 21.0304C90.8474 21.2197 90.9529 21.3616 90.9529 21.4563C91.7494 20.1314 92.2766 19.327 92.5343 19.0431C93.1903 18.2624 93.9283 17.872 94.7483 17.872C95.0528 17.872 95.3691 17.9193 95.6971 18.0139C96.5171 19.3861 97.056 21.1014 97.3137 23.1597C97.384 23.7512 97.4894 25.5847 97.63 28.6603C97.8877 29.7013 97.7354 30.3046 97.1731 30.4702C96.5405 30.6595 96.0485 30.7541 95.6971 30.7541C95.1583 30.7541 94.8537 30.553 94.7834 30.1508C94.6663 29.2518 94.5608 27.785 94.4671 25.7503C94.3968 23.9049 94.2563 22.4736 94.0454 21.4563C93.3894 22.1897 92.7803 23.3135 92.218 24.8276C91.4917 26.7203 90.9763 27.9387 90.6717 28.4829C90.3672 29.0034 89.9103 29.2636 89.3012 29.2636C88.6686 29.2636 88.2586 28.8969 88.0712 28.1635C87.954 27.643 87.9072 26.9569 87.9306 26.1052C88.0009 24.5674 88.036 23.8695 88.036 24.0114Z" fill="#FFA500"/>
<path d="M108.22 32.4575C108.033 32.3393 107.834 32.079 107.623 31.6768C107.435 31.3456 107.26 31.18 107.096 31.18C105.854 30.967 104.601 30.7541 103.335 30.5412C101.953 30.1863 100.969 29.5002 100.383 28.4829C100.009 27.9861 99.8212 27.3236 99.8212 26.4956C99.8212 25.289 100.114 24.2953 100.7 23.5146C102.105 21.5982 104.167 20.6401 106.885 20.6401C108.056 20.6401 108.619 20.6755 108.572 20.7465C108.759 20.4626 108.853 20.0604 108.853 19.5399C108.853 18.9248 108.677 18.5818 108.326 18.5108C107.974 18.4161 107.623 18.3688 107.271 18.3688C106.662 18.3688 105.983 18.5226 105.233 18.8302C104.507 19.1141 103.792 19.3861 103.089 19.6464C102.972 19.6937 102.867 19.7174 102.773 19.7174C102.398 19.7174 102.094 19.4453 101.859 18.9011C101.672 18.4753 101.578 18.0139 101.578 17.5171C101.578 17.2095 101.613 17.0203 101.684 16.9493C103.23 15.8847 104.975 15.3523 106.92 15.3523C108.958 15.3523 110.329 16.0858 111.032 17.5526C111.406 18.357 111.594 19.2324 111.594 20.1787C111.594 20.9594 111.442 22.0596 111.137 23.4791C110.786 25.0406 110.575 26.1762 110.505 26.8859C110.387 28.6603 110.27 29.8669 110.153 30.5057C109.872 31.9489 109.427 32.6705 108.818 32.6705C108.63 32.6705 108.431 32.5995 108.22 32.4575ZM107.588 28.1635C107.658 27.8323 107.81 27.2408 108.045 26.3891C108.255 25.7267 108.361 25.1825 108.361 24.7567C108.361 24.2598 108.255 23.763 108.045 23.2662C106.85 23.5264 105.667 23.7748 104.495 24.0114C103.113 24.4136 102.41 25.2417 102.387 26.4956C102.363 27.0397 102.879 27.5011 103.933 27.8796C104.847 28.2345 105.76 28.4119 106.674 28.4119C107.213 28.4119 107.517 28.3291 107.588 28.1635Z" fill="#FFA500"/>
<path d="M113.967 16.6299C115.817 15.0448 117.75 14.2522 119.765 14.2522C120.702 14.2522 121.569 14.4651 122.366 14.891C122.928 15.1749 123.162 15.5298 123.069 15.9556C122.155 17.872 121.698 20.155 121.698 22.8048C121.698 23.9168 121.815 25.5729 122.049 27.7731C122.307 29.9497 122.436 31.594 122.436 32.706C122.436 34.504 121.885 35.7224 120.784 36.3612C120.035 36.7871 119.191 37 118.254 37C117.059 37 115.958 36.6688 114.951 36.0063C113.943 35.3439 113.252 34.4685 112.877 33.3802C112.83 33.2383 112.807 33.1082 112.807 32.9899C112.807 32.635 112.959 32.3274 113.264 32.0672C113.568 31.8306 113.908 31.7123 114.283 31.7123C114.611 31.7123 114.857 31.8188 115.021 32.0317C115.115 32.1263 115.478 32.5522 116.11 33.3093C116.555 33.8534 116.954 34.2438 117.305 34.4804C117.821 34.8116 118.359 34.9417 118.922 34.8707C119.062 34.7997 119.285 34.4804 119.589 33.9125C119.73 33.0608 119.8 32.1618 119.8 31.2155C119.8 29.8196 119.543 27.6548 119.027 24.7212C119.027 24.6975 119.051 24.591 119.097 24.4018C119.144 24.1888 119.168 24.0351 119.168 23.9404C119.168 23.6802 119.039 23.6329 118.781 23.7985C117.75 24.4136 116.825 24.7212 116.005 24.7212C115.583 24.7212 115.173 24.6384 114.775 24.4728C114.072 24.1888 113.404 23.4673 112.772 22.308C112.467 21.5746 112.315 20.853 112.315 20.1432C112.315 18.7474 112.865 17.5763 113.967 16.6299ZM116.181 17.6236C115.361 18.3097 115.021 19.1496 115.161 20.1432C115.372 21.7757 115.817 22.5919 116.497 22.5919C117.059 22.6392 117.539 22.308 117.938 21.5982C118.266 20.9358 118.594 20.2733 118.922 19.6109C119.156 19.1614 119.273 18.6172 119.273 17.9785C119.273 17.5289 119.191 17.1859 119.027 16.9493C118.887 16.6891 118.664 16.5589 118.359 16.5589C117.75 16.5589 117.024 16.9138 116.181 17.6236Z" fill="#FFA500"/>
<path d="M123.847 21.7047C123.823 20.0959 124.292 18.7592 125.253 17.6946C126.213 16.6063 127.443 16.0621 128.943 16.0621C130.536 16.0621 131.941 16.6772 133.16 17.9075C134.401 19.1141 135.011 20.5336 134.987 22.166C134.776 22.8285 133.898 23.621 132.351 24.5437C130.43 25.703 129.364 26.3891 129.153 26.602C128.755 26.7913 128.556 26.9924 128.556 27.2053C128.556 27.5839 128.814 27.9269 129.329 28.2345C129.845 28.5184 130.301 28.6603 130.7 28.6603C131.473 28.6603 132.586 28.2818 134.038 27.5247C134.483 27.8559 134.706 28.3055 134.706 28.8733C134.706 29.3228 134.565 29.7368 134.284 30.1153C134.003 30.4939 133.64 30.7186 133.195 30.7896C131.695 31.0262 130.747 31.1445 130.348 31.1445C129.552 31.1445 128.837 31.0025 128.205 30.7186C125.417 29.4647 123.964 26.4601 123.847 21.7047ZM127.677 23.5146C129.763 23.4199 131.028 22.6747 131.473 21.2788C131.567 21.0896 131.613 20.9003 131.613 20.711C131.613 20.2142 131.356 19.812 130.84 19.5044C130.325 19.1969 129.751 19.0431 129.118 19.0431C128.65 19.0431 128.251 19.1377 127.923 19.327C127.244 19.6819 126.904 20.4271 126.904 21.5627C126.904 22.8166 127.162 23.4673 127.677 23.5146Z" fill="#FFA500"/>
<path d="M142.558 17.0913C142.652 16.0266 142.734 15.305 142.804 14.9265C142.945 14.1221 143.179 13.4597 143.507 12.9392C143.39 12.8918 143.167 12.8327 142.839 12.7617C142.511 12.6907 142.289 12.6198 142.172 12.5488C141.914 12.3122 141.785 11.981 141.785 11.5551C141.785 10.7271 142.043 10.2066 142.558 9.99366C144.245 9.33122 145.979 9 147.759 9C151.953 9 155.409 10.5733 158.126 13.7199C158.15 14.0511 158.161 14.3587 158.161 14.6426C158.161 17.2214 156.756 19.3743 153.944 21.1014C152.749 21.8348 150.184 22.9231 146.248 24.3663C146.178 24.9578 146.236 25.7385 146.424 26.7085C146.635 27.7968 146.74 28.542 146.74 28.9442C146.74 29.2755 146.705 29.583 146.635 29.8669C146.471 30.3874 146.143 30.8251 145.651 31.18C145.182 31.5349 144.643 31.7123 144.034 31.7123C143.8 31.7123 143.566 31.6886 143.331 31.6413C143.331 31.6413 143.074 31.3692 142.558 30.8251C142.3 28.8378 142.172 26.744 142.172 24.5437C142.172 22.4145 142.3 19.9303 142.558 17.0913ZM146.424 16.275C146.424 16.5826 146.365 17.0794 146.248 17.7655C146.131 18.428 146.072 18.8893 146.072 19.1496C146.072 19.741 146.26 20.1077 146.635 20.2497C147.009 20.368 147.408 20.4271 147.829 20.4271C149.141 20.4271 150.453 19.9066 151.765 18.8657C153.077 17.8247 153.897 16.6417 154.225 15.3169C151.484 13.2349 149.27 12.1939 147.583 12.1939C147.138 12.1939 146.693 12.2531 146.248 12.3714C146.225 12.3714 146.33 12.4897 146.564 12.7262C146.869 13.0338 147.021 13.3059 147.021 13.5425C147.021 13.8737 146.916 14.335 146.705 14.9265C146.518 15.518 146.424 15.9675 146.424 16.275Z" fill="#FFA500"/>
<path d="M159.729 20.711C159.682 20.3325 159.495 19.7055 159.167 18.8302C158.862 18.0258 158.71 17.4106 158.71 16.9848C158.71 16.417 158.921 15.9438 159.343 15.5653C159.764 15.1631 160.209 14.962 160.678 14.962C161.287 14.962 161.814 15.2577 162.259 15.8492C162.705 16.417 162.927 17.0913 162.927 17.872C162.927 18.0376 162.915 18.2032 162.892 18.3688C163.501 18.2742 164.239 17.7774 165.106 16.8783C165.902 16.0266 166.629 15.6008 167.285 15.6008C167.519 15.6008 167.765 15.6362 168.023 15.7072C169.007 16.1094 169.499 16.4998 169.499 16.8783C169.499 17.0676 169.417 17.2687 169.253 17.4816C168.808 18.1204 167.988 18.9366 166.793 19.9303C165.621 20.9003 164.79 21.752 164.298 22.4854C164.134 22.7457 164.028 23.1715 163.981 23.763C163.958 24.3545 163.876 24.7685 163.735 25.0051C163.618 25.218 163.56 25.4782 163.56 25.7858C163.56 26.2826 163.747 26.7795 164.122 27.2763C164.426 27.6548 164.579 28.1398 164.579 28.7313C164.579 29.6067 164.309 30.3046 163.771 30.8251C163.419 31.3929 162.892 31.6768 162.189 31.6768C161.603 31.6768 161.135 31.4521 160.783 31.0025C160.385 30.7423 160.209 30.21 160.256 29.4056C160.35 27.3 160.174 24.4018 159.729 20.711Z" fill="#FFA500"/>
<path d="M178.574 32.4575C178.387 32.3393 178.187 32.079 177.977 31.6768C177.789 31.3456 177.613 31.18 177.449 31.18C176.208 30.967 174.954 30.7541 173.689 30.5412C172.307 30.1863 171.323 29.5002 170.737 28.4829C170.362 27.9861 170.175 27.3236 170.175 26.4956C170.175 25.289 170.468 24.2953 171.054 23.5146C172.459 21.5982 174.521 20.6401 177.239 20.6401C178.41 20.6401 178.972 20.6755 178.925 20.7465C179.113 20.4626 179.207 20.0604 179.207 19.5399C179.207 18.9248 179.031 18.5818 178.679 18.5108C178.328 18.4161 177.977 18.3688 177.625 18.3688C177.016 18.3688 176.337 18.5226 175.587 18.8302C174.861 19.1141 174.146 19.3861 173.443 19.6464C173.326 19.6937 173.221 19.7174 173.127 19.7174C172.752 19.7174 172.448 19.4453 172.213 18.9011C172.026 18.4753 171.932 18.0139 171.932 17.5171C171.932 17.2095 171.967 17.0203 172.038 16.9493C173.584 15.8847 175.329 15.3523 177.274 15.3523C179.312 15.3523 180.683 16.0858 181.385 17.5526C181.76 18.357 181.948 19.2324 181.948 20.1787C181.948 20.9594 181.795 22.0596 181.491 23.4791C181.139 25.0406 180.929 26.1762 180.858 26.8859C180.741 28.6603 180.624 29.8669 180.507 30.5057C180.226 31.9489 179.781 32.6705 179.171 32.6705C178.984 32.6705 178.785 32.5995 178.574 32.4575ZM177.941 28.1635C178.012 27.8323 178.164 27.2408 178.398 26.3891C178.609 25.7267 178.715 25.1825 178.715 24.7567C178.715 24.2598 178.609 23.763 178.398 23.2662C177.203 23.5264 176.02 23.7748 174.849 24.0114C173.467 24.4136 172.764 25.2417 172.74 26.4956C172.717 27.0397 173.232 27.5011 174.287 27.8796C175.2 28.2345 176.114 28.4119 177.028 28.4119C177.567 28.4119 177.871 28.3291 177.941 28.1635Z" fill="#FFA500"/>
<path d="M183.477 24.0114C183.477 23.6329 183.442 23.0296 183.372 22.2015C183.325 21.3735 183.301 20.7583 183.301 20.3561C183.301 19.4571 183.407 18.7237 183.618 18.1559C183.828 17.6591 184.274 17.4106 184.953 17.4106C185.726 17.4106 186.206 17.7182 186.394 18.3333C186.441 18.4753 186.464 18.6409 186.464 18.8302C186.464 19.0668 186.394 19.4335 186.253 19.9303C186.136 20.4035 186.078 20.7702 186.078 21.0304C186.288 21.2197 186.394 21.3616 186.394 21.4563C187.19 20.1314 187.718 19.327 187.975 19.0431C188.631 18.2624 189.369 17.872 190.189 17.872C190.494 17.872 190.81 17.9193 191.138 18.0139C191.958 19.3861 192.497 21.1014 192.755 23.1597C192.825 23.7512 192.93 25.5847 193.071 28.6603C193.329 29.7013 193.176 30.3046 192.614 30.4702C191.981 30.6595 191.489 30.7541 191.138 30.7541C190.599 30.7541 190.295 30.553 190.224 30.1508C190.107 29.2518 190.002 27.785 189.908 25.7503C189.838 23.9049 189.697 22.4736 189.486 21.4563C188.83 22.1897 188.221 23.3135 187.659 24.8276C186.933 26.7203 186.417 27.9387 186.113 28.4829C185.808 29.0034 185.351 29.2636 184.742 29.2636C184.11 29.2636 183.7 28.8969 183.512 28.1635C183.395 27.643 183.348 26.9569 183.372 26.1052C183.442 24.5674 183.477 23.8695 183.477 24.0114Z" fill="#FFA500"/>
<path d="M195.332 17.73C195.379 17.0676 195.332 16.1567 195.192 14.9975C195.028 13.6726 194.946 12.7617 194.946 12.2649C194.946 11.3895 195.075 10.6561 195.332 10.0646C195.614 9.35488 196.316 9 197.441 9C197.699 9 197.945 9.03549 198.179 9.10646C198.484 9.41403 198.636 9.67427 198.636 9.8872C198.636 10.8335 198.565 12.5725 198.425 15.1039C198.308 17.2569 198.273 18.9839 198.32 20.2852C198.39 20.3798 198.659 20.4271 199.128 20.4271C199.807 19.9066 200.475 19.3861 201.131 18.8657C201.927 18.3215 202.654 18.0494 203.31 18.0494C203.825 18.0494 204.329 18.2032 204.821 18.5108C205.125 18.6764 205.278 18.8775 205.278 19.1141C205.278 19.5872 204.973 19.9776 204.364 20.2852C204.153 20.4271 203.544 20.782 202.537 21.3498C201.74 21.7993 201.131 22.237 200.709 22.6629C202.396 23.9404 204.715 25.9632 207.667 28.7313C207.808 28.9206 207.878 29.1098 207.878 29.2991C207.878 29.7013 207.656 30.0444 207.211 30.3283C206.883 30.7541 206.437 30.967 205.875 30.967C205.407 30.967 205.055 30.8133 204.821 30.5057C204.305 29.9616 202.455 28.3646 199.268 25.7148C199.151 25.6202 199.046 25.5729 198.952 25.5729C198.788 25.5729 198.741 25.7267 198.812 26.0342C198.765 26.5074 198.812 27.2526 198.952 28.27C199.116 29.2873 199.175 30.0325 199.128 30.5057C199.034 31.3101 198.472 31.7123 197.441 31.7123C196.902 31.7123 196.562 31.5703 196.422 31.2864C195.532 29.1808 195.086 26.5192 195.086 23.3016C195.086 22.0951 195.168 20.2379 195.332 17.73Z" fill="#FFA500"/>
<path d="M215.256 15.8492C216.146 16.2041 217.036 16.5708 217.927 16.9493C218.887 17.4225 219.543 18.0139 219.895 18.7237C219.965 18.8183 220 18.9485 220 19.1141C220 19.7765 219.777 20.2497 219.332 20.5336C219.121 20.6519 218.887 20.711 218.629 20.711C218.231 20.711 217.481 20.3798 216.38 19.7174C215.279 19.0549 214.412 18.7237 213.78 18.7237C213.311 18.7237 212.854 18.8538 212.409 19.1141C212.198 19.256 212.093 19.4571 212.093 19.7174C212.093 20.0486 212.28 20.4271 212.655 20.853C213.053 21.2788 213.405 21.5509 213.709 21.6692C216.146 22.5446 217.997 23.5737 219.262 24.7567C219.684 25.1589 219.895 25.7148 219.895 26.4246C219.895 27.2526 219.637 28.0925 219.121 28.9442C218.629 29.7959 217.809 30.5175 216.661 31.109C215.537 31.6768 214.377 31.9607 213.182 31.9607C211.074 31.9607 209.598 31.0735 208.754 29.2991C208.684 29.1572 208.649 28.9916 208.649 28.8023C208.649 28.4001 208.836 28.0334 209.211 27.7022C209.586 27.3473 209.984 27.158 210.406 27.1343C210.734 27.087 211.027 27.3 211.285 27.7731C211.589 28.3173 211.835 28.6367 212.023 28.7313C212.444 28.9442 212.925 29.0507 213.463 29.0507C214.283 29.0507 214.998 28.8378 215.607 28.4119C216.24 27.9624 216.556 27.3828 216.556 26.673C216.556 26.1289 216.017 25.6084 214.939 25.1115C213.745 24.591 212.561 24.0824 211.39 23.5856C210.125 22.9231 209.246 22.0832 208.754 21.0659C208.614 20.7583 208.544 20.4508 208.544 20.1432C208.544 19.0786 209.211 18.0494 210.547 17.0558C211.812 16.1094 213.053 15.6362 214.272 15.6362C214.647 15.6362 214.975 15.7072 215.256 15.8492Z" fill="#FFA500"/>
</svg>
