<svg width="77" height="77" viewBox="0 0 77 77" fill="none" xmlns="http://www.w3.org/2000/svg">
<rect x="0.254234" y="0.24585" width="76" height="76" rx="11.5932" fill="#FF005C"/>
<path d="M47.3304 27.1314C46.2041 27.1314 45.2903 28.0441 45.2903 29.1707C45.2903 30.297 46.2041 31.2107 47.3304 31.2107C48.4566 31.2107 49.3704 30.297 49.3704 29.1707C49.3704 28.0445 48.4566 27.1314 47.3304 27.1314Z" fill="white"/>
<path fill-rule="evenodd" clip-rule="evenodd" d="M29.5257 38.2454C29.5257 33.4243 33.4345 29.5154 38.2557 29.5152C43.077 29.5152 46.9849 33.4241 46.9849 38.2454C46.9849 43.0667 43.0774 46.9738 38.256 46.9738C33.4347 46.9738 29.5257 43.0667 29.5257 38.2454ZM43.9228 38.2456C43.9228 35.1158 41.3855 32.5789 38.2561 32.5789C35.1263 32.5789 32.5893 35.1158 32.5893 38.2456C32.5893 41.375 35.1263 43.9122 38.2561 43.9122C41.3855 43.9122 43.9228 41.375 43.9228 38.2456Z" fill="white"/>
<path fill-rule="evenodd" clip-rule="evenodd" d="M38.2558 21.2458C33.6389 21.2458 33.0594 21.266 31.2461 21.3486C29.4363 21.4314 28.2009 21.718 27.12 22.1383C26.0019 22.5726 25.0534 23.1534 24.1085 24.0987C23.1629 25.0436 22.582 25.992 22.1464 27.1098C21.7249 28.1911 21.438 29.4267 21.3566 31.2358C21.2755 33.0492 21.2542 33.6289 21.2542 38.2458C21.2542 42.8628 21.2748 43.4404 21.3569 45.2537C21.4402 47.0635 21.7267 48.2989 22.1467 49.3798C22.5813 50.4979 23.1621 51.4464 24.1074 52.3913C25.052 53.3369 26.0005 53.9191 27.1179 54.3534C28.1995 54.7737 29.4352 55.0603 31.2447 55.1431C33.058 55.2257 33.6371 55.2458 38.2537 55.2458C42.871 55.2458 43.4487 55.2257 45.262 55.1431C47.0718 55.0603 48.3086 54.7737 49.3902 54.3534C50.508 53.9191 51.455 53.3369 52.3996 52.3913C53.3453 51.4464 53.9261 50.4979 54.3617 49.3801C54.7796 48.2989 55.0665 47.0632 55.1515 45.2541C55.233 43.4408 55.2542 42.8628 55.2542 38.2458C55.2542 33.6289 55.233 33.0495 55.1515 31.2362C55.0665 29.4264 54.7796 28.1911 54.3617 27.1101C53.9261 25.992 53.3453 25.0436 52.3996 24.0987C51.454 23.153 50.5084 22.5722 49.3892 22.1383C48.3054 21.718 47.0694 21.4314 45.2595 21.3486C43.4462 21.266 42.8689 21.2458 38.2505 21.2458H38.2558ZM36.7309 24.3091C37.027 24.3087 37.3454 24.3088 37.6891 24.309L38.256 24.3091C42.795 24.3091 43.333 24.3254 45.1255 24.4069C46.783 24.4827 47.6826 24.7596 48.2819 24.9923C49.0752 25.3005 49.6408 25.6688 50.2355 26.2638C50.8305 26.8588 51.1988 27.4255 51.5076 28.2188C51.7403 28.8173 52.0176 29.7169 52.0931 31.3744C52.1745 33.1665 52.1922 33.7048 52.1922 38.2417C52.1922 42.7786 52.1745 43.3169 52.0931 45.109C52.0173 46.7665 51.7403 47.6661 51.5076 48.2646C51.1995 49.058 50.8305 49.6228 50.2355 50.2175C49.6405 50.8125 49.0756 51.1808 48.2819 51.489C47.6833 51.7227 46.783 51.999 45.1255 52.0747C43.3334 52.1562 42.795 52.1739 38.256 52.1739C33.7166 52.1739 33.1786 52.1562 31.3865 52.0747C29.729 51.9982 28.8294 51.7213 28.2298 51.4886C27.4364 51.1805 26.8698 50.8121 26.2748 50.2171C25.6798 49.6221 25.3114 49.0569 25.0026 48.2632C24.7699 47.6647 24.4926 46.7651 24.4171 45.1076C24.3357 43.3155 24.3194 42.7772 24.3194 38.2375C24.3194 33.6977 24.3357 33.1622 24.4171 31.3702C24.4929 29.7127 24.7699 28.8131 25.0026 28.2138C25.3107 27.4205 25.6798 26.8538 26.2748 26.2588C26.8698 25.6638 27.4364 25.2955 28.2298 24.9867C28.829 24.7529 29.729 24.4767 31.3865 24.4005C32.9548 24.3297 33.5625 24.3084 36.7309 24.3049V24.3091Z" fill="white"/>
</svg>
