<svg width="16" height="17" viewBox="0 0 16 17" fill="none" xmlns="http://www.w3.org/2000/svg">
<path d="M11.7995 11.1245C13.8222 10.0233 15.367 9.18208 15.5075 9.10548C15.9267 8.87725 16.3659 8.29483 15.5075 7.8293C15.2317 7.67938 13.7284 6.864 11.7972 5.81592L9.14092 8.47844L11.7995 11.1245Z" fill="#FFE300"/>
<path d="M9.14082 8.47876L0.64511 16.9943C0.836968 17.0185 1.06773 16.9679 1.33315 16.8234C1.88266 16.5242 7.78393 13.311 11.7996 11.1246L9.14082 8.47876Z" fill="#FF4E54"/>
<path d="M9.14094 8.4787L11.7972 5.81617C11.7972 5.81617 1.92432 0.458083 1.33327 0.137327C1.10608 0.0140001 0.85839 -0.0290394 0.639143 0.0195281L9.14094 8.4787Z" fill="#00F085"/>
<path d="M9.14093 8.47832L0.638997 0.0192871C0.287832 0.0972057 4.57764e-05 0.399535 4.57764e-05 1.00722V15.9789C4.57764e-05 16.5512 0.226438 16.9537 0.645084 16.9938L9.14093 8.47832Z" fill="#00E0FF"/>
</svg>
