<svg width="17" height="18" viewBox="0 0 17 18" fill="none" xmlns="http://www.w3.org/2000/svg">
<path d="M5.65833 10.208L11.35 13.392M11.3417 4.608L5.65833 7.792M16 3.4C16 4.72548 14.8807 5.8 13.5 5.8C12.1193 5.8 11 4.72548 11 3.4C11 2.07452 12.1193 1 13.5 1C14.8807 1 16 2.07452 16 3.4ZM6 9C6 10.3255 4.88071 11.4 3.5 11.4C2.11929 11.4 1 10.3255 1 9C1 7.67452 2.11929 6.6 3.5 6.6C4.88071 6.6 6 7.67452 6 9ZM16 14.6C16 15.9255 14.8807 17 13.5 17C12.1193 17 11 15.9255 11 14.6C11 13.2745 12.1193 12.2 13.5 12.2C14.8807 12.2 16 13.2745 16 14.6Z" stroke="#2FDBD9" stroke-width="1.5" stroke-linecap="round" stroke-linejoin="round"/>
</svg>
