<svg width="77" height="77" viewBox="0 0 77 77" fill="none" xmlns="http://www.w3.org/2000/svg">
<rect x="0.745758" y="0.24585" width="76" height="76" rx="11.5932" fill="#010101"/>
<path d="M46.0411 33.5433C48.2361 35.1148 50.925 36.0395 53.8292 36.0395V30.442C53.2796 30.4421 52.7313 30.3847 52.1936 30.2706V34.6766C49.2897 34.6766 46.6011 33.752 44.4055 32.1805V43.6035C44.4055 49.3178 39.7806 53.9499 34.0759 53.9499C31.9473 53.9499 29.9689 53.3053 28.3254 52.1999C30.2011 54.1209 32.817 55.3126 35.7111 55.3126C41.4162 55.3126 46.0413 50.6806 46.0413 44.966V33.5433H46.0411ZM48.0587 27.896C46.937 26.6685 46.2005 25.0822 46.0411 23.3285V22.6085H44.4912C44.8813 24.8375 46.212 26.7418 48.0587 27.896ZM31.9336 47.8149C31.3069 46.9918 30.9682 45.9849 30.9697 44.9496C30.9697 42.3361 33.0851 40.217 35.695 40.217C36.1814 40.2169 36.6648 40.2915 37.1283 40.4388V34.7162C36.5867 34.6418 36.04 34.6102 35.4935 34.6218V39.076C35.0296 38.9287 34.5459 38.8539 34.0594 38.8544C31.4496 38.8544 29.3343 40.9732 29.3343 43.5871C29.3343 45.4353 30.3917 47.0354 31.9336 47.8149Z" fill="#FF004F"/>
<path d="M44.4055 32.1804C46.6011 33.7518 49.2897 34.6765 52.1936 34.6765V30.2704C50.5726 29.9246 49.1376 29.0762 48.0587 27.896C46.2119 26.7417 44.8813 24.8374 44.4912 22.6085H40.42V44.9658C40.4108 47.5722 38.299 49.6826 35.6947 49.6826C34.1601 49.6826 32.7967 48.9499 31.9333 47.8149C30.3914 47.0354 29.3341 45.4352 29.3341 43.5872C29.3341 40.9736 31.4494 38.8545 34.0592 38.8545C34.5592 38.8545 35.0412 38.9325 35.4933 39.0762V34.6219C29.8887 34.7379 25.3813 39.3247 25.3813 44.9659C25.3813 47.7819 26.5037 50.3347 28.3255 52.2C29.969 53.3053 31.9474 53.95 34.076 53.95C39.7809 53.95 44.4057 49.3177 44.4057 43.6035V32.1804H44.4055Z" fill="white"/>
<path d="M52.1934 30.2704V29.0791C50.7317 29.0813 49.2986 28.6713 48.0585 27.8959C49.1563 29.0998 50.6019 29.9299 52.1934 30.2704ZM44.4909 22.6085C44.4537 22.3955 44.4251 22.1811 44.4053 21.9658V21.2458H38.7841V43.6033C38.7751 46.2094 36.6634 48.3198 34.0589 48.3198C33.2943 48.3198 32.5724 48.138 31.933 47.815C32.7965 48.9499 34.1599 49.6825 35.6945 49.6825C38.2985 49.6825 40.4106 47.5723 40.4197 44.9659V22.6085H44.4909ZM35.4932 34.6219V33.3536C35.0235 33.2893 34.55 33.257 34.0759 33.2573C28.3705 33.2571 23.7456 37.8894 23.7456 43.6033C23.7456 47.1856 25.5633 50.3427 28.3254 52.1998C26.5036 50.3346 25.3812 47.7817 25.3812 44.9657C25.3812 39.3247 29.8885 34.7379 35.4932 34.6219Z" fill="#00F2EA"/>
</svg>
