<svg width="77" height="77" viewBox="0 0 77 77" fill="none" xmlns="http://www.w3.org/2000/svg">
<rect x="0.254234" y="0.754272" width="76" height="76" rx="11.5932" fill="#FF0000"/>
<path fill-rule="evenodd" clip-rule="evenodd" d="M51.5376 27.4708C53.0006 27.865 54.1527 29.0267 54.5437 30.5019C55.2542 33.1756 55.2542 38.7543 55.2542 38.7543C55.2542 38.7543 55.2542 44.3327 54.5437 47.0066C54.1527 48.4818 53.0006 49.6435 51.5376 50.0379C48.8864 50.7543 38.2542 50.7543 38.2542 50.7543C38.2542 50.7543 27.6221 50.7543 24.9707 50.0379C23.5077 49.6435 22.3556 48.4818 21.9646 47.0066C21.2542 44.3327 21.2542 38.7543 21.2542 38.7543C21.2542 38.7543 21.2542 33.1756 21.9646 30.5019C22.3556 29.0267 23.5077 27.865 24.9707 27.4708C27.6221 26.7543 38.2542 26.7543 38.2542 26.7543C38.2542 26.7543 48.8864 26.7543 51.5376 27.4708ZM35.0668 34.0589V44.4936L43.5668 39.2765L35.0668 34.0589Z" fill="white"/>
</svg>
