<svg width="19" height="14" viewBox="0 0 19 14" fill="none" xmlns="http://www.w3.org/2000/svg">
<path d="M1 7C1 7 4.09091 1 9.5 1C14.9091 1 18 7 18 7C18 7 14.9091 13 9.5 13C4.09091 13 1 7 1 7Z" fill="#ACB2C1" fill-opacity="0.15"/>
<path d="M9.5 9.25C10.7803 9.25 11.8182 8.24264 11.8182 7C11.8182 5.75736 10.7803 4.75 9.5 4.75C8.2197 4.75 7.18182 5.75736 7.18182 7C7.18182 8.24264 8.2197 9.25 9.5 9.25Z" fill="#ACB2C1" fill-opacity="0.15"/>
<path d="M1 7C1 7 4.09091 1 9.5 1C14.9091 1 18 7 18 7C18 7 14.9091 13 9.5 13C4.09091 13 1 7 1 7Z" stroke="#A2A8B7" stroke-width="1.5" stroke-linecap="round" stroke-linejoin="round"/>
<path d="M9.5 9.25C10.7803 9.25 11.8182 8.24264 11.8182 7C11.8182 5.75736 10.7803 4.75 9.5 4.75C8.2197 4.75 7.18182 5.75736 7.18182 7C7.18182 8.24264 8.2197 9.25 9.5 9.25Z" stroke="#A2A8B7" stroke-width="1.5" stroke-linecap="round" stroke-linejoin="round"/>
</svg>
